<?xml version="1.0" encoding="UTF-8"?>
<svg version="1.1" xmlns="http://www.w3.org/2000/svg" width="50" height="50">
<path d="M0 0 C0.99 0 1.98 0 3 0 C3 0.99 3 1.98 3 3 C4.65 3 6.3 3 8 3 C6.88820837 6.33537489 5.52588702 7.63707344 3 10 C3.639375 10.28875 4.27875 10.5775 4.9375 10.875 C7 12 7 12 8 14 C8.45283019 19.32075472 8.45283019 19.32075472 6.75 21.875 C5 23 5 23 1 23 C1.33 23.66 1.66 24.32 2 25 C2.29325631 28.37244761 2.340946 30.38305009 0.6875 33.375 C-1 35 -1 35 -4 35 C-4.33 35.99 -4.66 36.98 -5 38 C-6.3921875 37.9690625 -6.3921875 37.9690625 -7.8125 37.9375 C-11.02286011 37.84230396 -11.02286011 37.84230396 -14 39 C-14.55941359 37.25559202 -15.09691897 35.50414743 -15.625 33.75 C-15.92664062 32.77546875 -16.22828125 31.8009375 -16.5390625 30.796875 C-17.05220752 27.68321539 -16.71056541 26.58430745 -15 24 C-15.928125 23.896875 -16.85625 23.79375 -17.8125 23.6875 C-21 23 -21 23 -22.875 21.75 C-24.41344739 19.35685962 -24.27349109 17.80328366 -24 15 C-23.70630173 13.65737935 -23.3721042 12.32303717 -23 11 C-22.835 10.113125 -22.67 9.22625 -22.5 8.3125 C-22 6 -22 6 -21 5 C-17.16774071 4.55438845 -15.25594655 4.86449888 -11.8125 6.6875 C-9.04666683 8.9616295 -7.58838137 10.82323727 -6 14 C-3.73885557 10.60828336 -3.28666959 7.9962659 -2.5625 4.05859375 C-2 2 -2 2 0 0 Z M1 3 C1.33 3.66 1.66 4.32 2 5 C2.33 4.34 2.66 3.68 3 3 C2.34 3 1.68 3 1 3 Z M0 5 C1 7 1 7 1 7 Z M-12 30 C-11.01 31.32 -10.02 32.64 -9 34 C-8.01 33.67 -7.02 33.34 -6 33 C-8.67247634 30.65712582 -8.67247634 30.65712582 -12 30 Z " fill="#6A4976" transform="translate(32,6)"/>
<path d="M0 0 C0.99 0 1.98 0 3 0 C3 0.99 3 1.98 3 3 C4.65 3 6.3 3 8 3 C6.88820837 6.33537489 5.52588702 7.63707344 3 10 C3.639375 10.28875 4.27875 10.5775 4.9375 10.875 C7 12 7 12 8 14 C8.45283019 19.32075472 8.45283019 19.32075472 6.75 21.875 C5 23 5 23 1 23 C0.67 23.66 0.34 24.32 0 25 C-2.26959719 22.47395114 -4.32682175 19.9631447 -6 17 C-5.5 14.0625 -5.5 14.0625 -4 11 C-3.45972267 8.66012243 -3.01179345 6.31191561 -2.5625 3.953125 C-2 2 -2 2 0 0 Z M1 3 C1.33 3.66 1.66 4.32 2 5 C2.33 4.34 2.66 3.68 3 3 C2.34 3 1.68 3 1 3 Z M0 5 C1 7 1 7 1 7 Z " fill="#9C699F" transform="translate(32,6)"/>
<path d="M0 0 C1.7074998 1.28062485 3.37373596 2.61767557 5 4 C5 4.66 5 5.32 5 6 C5.66 6 6.32 6 7 6 C7.22692276 9.32820054 7.32162419 11.41801336 5.6875 14.375 C4 16 4 16 1 16 C0.67 16.99 0.34 17.98 0 19 C-0.928125 18.979375 -1.85625 18.95875 -2.8125 18.9375 C-6.02286011 18.84230396 -6.02286011 18.84230396 -9 20 C-9.99 16.37 -10.98 12.74 -12 9 C-11.01 9 -10.02 9 -9 9 C-8.21625 9.825 -7.4325 10.65 -6.625 11.5 C-4.25894289 14.25854622 -4.25894289 14.25854622 -1.1875 14.3125 C-0.1046875 14.1578125 -0.1046875 14.1578125 1 14 C-0.47446854 10.11276476 -2.5052928 9.06098117 -6 7 C-6.33 6.01 -6.66 5.02 -7 4 C-3.66135596 4.57562828 -2.30897368 5.59063616 0 8 C0.99 8.33 1.98 8.66 3 9 C2.525625 8.21625 2.05125 7.4325 1.5625 6.625 C0.66101977 5.11051322 -0.21179485 3.5764103 -1 2 C-0.67 1.34 -0.34 0.68 0 0 Z " fill="#6597AE" transform="translate(27,25)"/>
<path d="M0 0 C0.66 0.33 1.32 0.66 2 1 C3.62335423 1.12726645 5.2488558 1.22805631 6.875 1.3125 C10.49286893 1.62618806 11.69586168 1.76103418 14.625 4.0625 C15.305625 5.0215625 15.305625 5.0215625 16 6 C14.865625 6.4125 13.73125 6.825 12.5625 7.25 C8.90456616 8.56685398 8.90456616 8.56685398 8.0625 11.1875 C8.041875 11.785625 8.02125 12.38375 8 13 C8 12.01 8 11.02 8 10 C7.071875 9.896875 6.14375 9.79375 5.1875 9.6875 C2 9 2 9 0.125 7.75 C-1.39056296 5.39245761 -1.28918735 3.74727982 -1 1 C-0.67 0.67 -0.34 0.34 0 0 Z " fill="#B2EBD0" transform="translate(9,20)"/>
<path d="M0 0 C4.17697553 0.39405429 6.09063217 1.66340867 9.3125 4.3125 C11.25 6.9375 11.25 6.9375 12.3125 9.3125 C11.9825 9.9725 11.6525 10.6325 11.3125 11.3125 C6.70396203 10.59241594 2.64012591 8.99954061 -1.6875 7.3125 C-1.6875 6.3225 -1.6875 5.3325 -1.6875 4.3125 C-2.3475 4.3125 -3.0075 4.3125 -3.6875 4.3125 C-4.0175 4.9725 -4.3475 5.6325 -4.6875 6.3125 C-3.63025274 0.42212241 -3.63025274 0.42212241 0 0 Z " fill="#C4CBD3" transform="translate(13.6875,10.6875)"/>
<path d="M0 0 C3.875 1.75 3.875 1.75 5 4 C5.1875 7 5.1875 7 5 10 C3 12 3 12 0 12.25 C-3 12 -3 12 -5 10 C-4.625 7.875 -4.625 7.875 -4 6 C-3.01 6 -2.02 6 -1 6 C-1.020625 5.195625 -1.04125 4.39125 -1.0625 3.5625 C-1 1 -1 1 0 0 Z " fill="#7D2F75" transform="translate(35,16)"/>
<path d="M0 0 C0.44730469 0.433125 0.89460938 0.86625 1.35546875 1.3125 C5.1027842 4.91552816 5.1027842 4.91552816 9.9375 6.375 C10.618125 6.25125 11.29875 6.1275 12 6 C11.67 7.65 11.34 9.3 11 11 C9.6078125 10.9690625 9.6078125 10.9690625 8.1875 10.9375 C4.97713989 10.84230396 4.97713989 10.84230396 2 12 C1.01 8.37 0.02 4.74 -1 1 C-0.67 0.67 -0.34 0.34 0 0 Z " fill="#6CAEB7" transform="translate(16,33)"/>
<path d="M0 0 C0.66 0 1.32 0 2 0 C2.433125 0.598125 2.86625 1.19625 3.3125 1.8125 C4.91839803 4.17880042 4.91839803 4.17880042 7.6875 5.5625 C8.450625 6.036875 9.21375 6.51125 10 7 C10 7.99 10 8.98 10 10 C5.97657617 9.38101172 3.12229583 7.55460568 0 5 C-0.375 2.25 -0.375 2.25 0 0 Z " fill="#714981" transform="translate(18,29)"/>
<path d="M0 0 C0.33 0 0.66 0 1 0 C1.66 1.98 2.32 3.96 3 6 C5.64 6.33 8.28 6.66 11 7 C10.34 7.66 9.68 8.32 9 9 C8.3574765 11.06874034 8.3574765 11.06874034 8 13 C8 12.01 8 11.02 8 10 C7.071875 9.896875 6.14375 9.79375 5.1875 9.6875 C2 9 2 9 0.125 7.75 C-1.39056296 5.39245761 -1.28918735 3.74727982 -1 1 C-0.67 0.67 -0.34 0.34 0 0 Z " fill="#AA8DAA" transform="translate(9,20)"/>
<path d="M0 0 C3.85317399 -0.36696895 5.81897751 -0.09221901 9.3125 1.6875 C12 4 12 4 12.875 6.75 C12.936875 7.86375 12.936875 7.86375 13 9 C12.34644531 8.3503125 12.34644531 8.3503125 11.6796875 7.6875 C7.74032717 3.93412097 7.74032717 3.93412097 2.5625 2.625 C1.716875 2.74875 0.87125 2.8725 0 3 C0 2.01 0 1.02 0 0 Z " fill="#8D7389" transform="translate(11,11)"/>
<path d="M0 0 C2.4375 1.5625 2.4375 1.5625 5 4 C5.8125 7.75 5.8125 7.75 6 11 C4.68 11 3.36 11 2 11 C2.0928125 9.88625 2.0928125 9.88625 2.1875 8.75 C1.96905704 5.54616994 1.09749995 4.35968744 -1 2 C-0.67 1.34 -0.34 0.68 0 0 Z " fill="#35A0A7" transform="translate(27,25)"/>
<path d="M0 0 C9.17286652 0.35010941 9.17286652 0.35010941 12.625 3.0625 C13.07875 3.701875 13.5325 4.34125 14 5 C12.68 5.33 11.36 5.66 10 6 C9.67 5.01 9.34 4.02 9 3 C7.12612784 2.19787372 7.12612784 2.19787372 4.9375 1.8125 C4.20402344 1.65394531 3.47054688 1.49539062 2.71484375 1.33203125 C2.14894531 1.22246094 1.58304688 1.11289062 1 1 C1.66 2.65 2.32 4.3 3 6 C1.68 5.34 0.36 4.68 -1 4 C-0.67 2.68 -0.34 1.36 0 0 Z " fill="#BAC7CE" transform="translate(11,21)"/>
<path d="M0 0 C0 0.99 0 1.98 0 3 C-0.66 3 -1.32 3 -2 3 C-2 5.31 -2 7.62 -2 10 C-3.32 10.33 -4.64 10.66 -6 11 C-6.36476427 4.67741935 -6.36476427 4.67741935 -4.6875 1.5625 C-3 0 -3 0 0 0 Z " fill="#CCA9C8" transform="translate(35,6)"/>
<path d="M0 0 C2.1875 1.25 2.1875 1.25 4 3 C4 3.99 4 4.98 4 6 C1.11424181 5.60196439 0.17810487 5.20990931 -1.75 2.9375 C-2.1625 2.298125 -2.575 1.65875 -3 1 C-2.01 0.67 -1.02 0.34 0 0 Z " fill="#51467E" transform="translate(26,28)"/>
<path d="M0 0 C1.65 0.33 3.3 0.66 5 1 C5 1.99 5 2.98 5 4 C3.35 4 1.7 4 0 4 C0 2.68 0 1.36 0 0 Z " fill="#B6E6DB" transform="translate(14,14)"/>
<path d="M0 0 C1.65 0 3.3 0 5 0 C4 3 4 3 2.0625 4.25 C1.381875 4.4975 0.70125 4.745 0 5 C-0.66 4.67 -1.32 4.34 -2 4 C-1.34 2.68 -0.68 1.36 0 0 Z " fill="#C1AABD" transform="translate(35,9)"/>
<path d="M0 0 C1.32 0.66 2.64 1.32 4 2 C3.01 2.495 3.01 2.495 2 3 C2 3.99 2 4.98 2 6 C1.01 6 0.02 6 -1 6 C-1.042721 4.33388095 -1.04063832 2.66617115 -1 1 C-0.67 0.67 -0.34 0.34 0 0 Z " fill="#B17CAE" transform="translate(35,16)"/>
<path d="M0 0 C0.66 1.32 1.32 2.64 2 4 C-1.73487777 3.5020163 -3.81237635 3.12508244 -7 1 C-4 0 -4 0 0 0 Z " fill="#B4AAC2" transform="translate(24,18)"/>
<path d="M0 0 C1.65 1.65 3.3 3.3 5 5 C3.35 5.33 1.7 5.66 0 6 C-0.38218767 4.34385343 -0.71395102 2.67542976 -1 1 C-0.67 0.67 -0.34 0.34 0 0 Z " fill="#87C5C8" transform="translate(16,33)"/>
<path d="M0 0 C0.33 0 0.66 0 1 0 C1 1.98 1 3.96 1 6 C-0.98 6.99 -0.98 6.99 -3 8 C-3.66 7.34 -4.32 6.68 -5 6 C-4.34 5.34 -3.68 4.68 -3 4 C-2.01 4.33 -1.02 4.66 0 5 C0 3.35 0 1.7 0 0 Z " fill="#A972A7" transform="translate(39,20)"/>
<path d="M0 0 C2.97 1.98 2.97 1.98 6 4 C2.125 7 2.125 7 1 7 C0.67 4.69 0.34 2.38 0 0 Z " fill="#684071" transform="translate(17,38)"/>
<path d="M0 0 C2.97 0.495 2.97 0.495 6 1 C5.67 1.99 5.34 2.98 5 4 C2.69 4 0.38 4 -2 4 C-0.68 3.34 0.64 2.68 2 2 C1.34 1.34 0.68 0.68 0 0 Z " fill="#BCE4D6" transform="translate(16,23)"/>
<path d="M0 0 C0.66 0 1.32 0 2 0 C2.66 1.65 3.32 3.3 4 5 C2.02 5.99 2.02 5.99 0 7 C0 4.69 0 2.38 0 0 Z " fill="#7F5F82" transform="translate(10,15)"/>
</svg>
